<svg xmlns="http://www.w3.org/2000/svg" viewBox="0 0 83.09 83.09"><defs><style>.cls-1{fill:#1d1d1b;}.cls-2{fill:#fff;}</style></defs><g id="Layer_2" data-name="Layer 2"><g id="Layer_1-2" data-name="Layer 1"><rect class="cls-1" width="83.09" height="83.09" rx="9.16"/><path class="cls-2" d="M56.58,51.31a5.48,5.48,0,0,1-1.7-1.09,1.49,1.49,0,0,0,.06.25c.25.86.51,1.25.67,1.76a.49.49,0,0,1-.13.12l-.51.44c-.3-.12-.68-.24-1.22-.43A19.93,19.93,0,0,1,50.94,51a16.28,16.28,0,0,1-1.84-1.23A2.64,2.64,0,0,0,50,48.7a2.87,2.87,0,0,0,0-1.39A4.32,4.32,0,0,0,49.46,46a17.91,17.91,0,0,1-1.83-4.07,15.7,15.7,0,0,0,2.62,3.18A21.68,21.68,0,0,0,52.67,47c.43.28.75.46,1,.64-.06-.53-.09-1.18-.18-2.08-.16-1.73-.38-3.13-.53-4l.69,0a5.88,5.88,0,0,0,0,2.53,5.47,5.47,0,0,0,3,3.12c.09.85.2,1.73.35,2.61,0,.3.09.58.13.85A6.6,6.6,0,0,1,56.58,51.31Z"/><path class="cls-2" d="M57.48,52.55c.16.92.34,1.8.53,2.65l-.5.26-.54.27c-1.08.48-2.41,1-2.84.59a1.1,1.1,0,0,1-.19-.56,1.67,1.67,0,0,1,0-.53A.94.94,0,0,1,54,55c.27-.52,1.05-.22,1.52-.71a1.35,1.35,0,0,0,.26-1c0-.09,0-.19,0-.29a2.65,2.65,0,0,0-.14-.77c-.16-.51-.42-.9-.67-1.76a1.49,1.49,0,0,1-.06-.25,5.48,5.48,0,0,0,1.7,1.09,6.6,6.6,0,0,0,.56-.7c.06.33.1.65.16,1S57.41,52.23,57.48,52.55Z"/><path class="cls-2" d="M58.66,54.22c.67,1.79,1.39,3.49,2.13,5.09l-.46.36c-1,.75-2.6,1.95-3.2,1.56a1.14,1.14,0,0,1-.31-.5A1.31,1.31,0,0,1,56.7,60c.16-.56,1-.44,1.37-1,.25-.38.13-.82,0-1.34A6.25,6.25,0,0,0,57,55.73c-.08-.12-.15-.25-.24-.4A5,5,0,0,1,56.19,54a1.54,1.54,0,0,0-.4-.65l0,0a2.09,2.09,0,0,0-.79-.5l.51-.44a.49.49,0,0,0,.13-.12c-.16-.51-.42-.9-.67-1.76a1.49,1.49,0,0,1-.06-.25,5.48,5.48,0,0,0,1.7,1.09l.72.26c.15.06.3.1.46.15s.07.23.12.35C58.13,52.77,58.38,53.48,58.66,54.22Z"/><path class="cls-2" d="M70.74,33.11c-.52.28-2,1.4-3.32,2.22a8,8,0,0,1-1.65.79,21.09,21.09,0,0,1-7.31.61,30.32,30.32,0,0,1-4.33-.56c0,.81-.09,2-.24,3.52a4.23,4.23,0,0,0,0,.5c0,.27-.06.5-.09.71s0,.41-.08.6l-.69,0c.15.86.37,2.26.53,4,.09.9.12,1.55.18,2.08-.27-.18-.59-.36-1-.64a21.68,21.68,0,0,1-2.42-1.86,15.7,15.7,0,0,1-2.62-3.18A17.91,17.91,0,0,0,49.46,46,4.32,4.32,0,0,1,50,47.31a2.87,2.87,0,0,1,0,1.39,2.64,2.64,0,0,1-.86,1.11l-.35.36c-.57.66-.38.77-1.26,2.37a3.36,3.36,0,0,0-.22.4,8.29,8.29,0,0,1-1.09,1.61,7.15,7.15,0,0,1-2,1.52c-1,.48-2.6,1-3,.5-.21-.3.07-.81.1-.86.41-.75,1.33-.64,2.37-1.22a5.81,5.81,0,0,0,1.62-1.55,8.54,8.54,0,0,0,.67-.89,7.12,7.12,0,0,0,1.34-3.14,6.65,6.65,0,0,0,0-1.91,11.63,11.63,0,0,1-1.56-1.41c-1.22-1.32-1.19-2-2.12-2.72a3.72,3.72,0,0,0-1-.63,5.44,5.44,0,0,0-2-.43c-1.3,0-1.88.59-3.12,1.1l-.25.11a9.54,9.54,0,0,1-4.89.41c-1.15,1.33-2.1,2.51-2.82,3.42a24.09,24.09,0,0,0-3,4.18c-.66,1.35-1.16,2.46-1.16,2.46-.67,1.55-.68,1.8-1.11,2.22a4.83,4.83,0,0,1-2.76,1.11c-.7.13-1,.08-1.16-.11a.65.65,0,0,1,0-.75c.29-.39.94,0,1.6-.3.38-.15.75-.47,1.27-1.67a23.61,23.61,0,0,0,.95-3.36c.57-1.72,1.1-1.87,1.76-3.84a14.14,14.14,0,0,0,.56-2.16c-1.56.43-2.88.74-3.88,1L21,45.94a3.75,3.75,0,0,0-.36-.72c-.36-.6-.66-.66-1.52-1.66l1.44-.44L23,42.37c-.07-.35-.16-.9-.25-1.57,0,0,0-.06,0-.09-.15-1.19-.08-1.22-.19-1.72-.3-1.22-.78-1.35-.71-2.06a1.2,1.2,0,0,1,.22-.59,2.85,2.85,0,0,0,.53-.92,3.66,3.66,0,0,0-.1-2.27c-.25-.7-.53-.79-1.25-2.16-.18-.33-.33-.61-.41-.8-.14.11-.55,0-.81.1a1.2,1.2,0,0,1-.9-.27c-.63-.33-1.13-.1-2.47.06a10,10,0,0,1-2.78.11c-.8-.18-1.88-.8-2.91-2.78a7.94,7.94,0,0,1,2-1.06c1.44-.51,2.11-.25,2.91-1,.57-.48.42-.76,1.12-1.3s1.41-.55,1.51-1-.6-.75-1.06-1.7a3.62,3.62,0,0,1-.35-1.72c1.23-.11,1.76.17,2,.5.4.51.1,1.17.6,1.82a2,2,0,0,0,1.06.65A3.56,3.56,0,0,1,20.4,21a3.74,3.74,0,0,1,1.41-2.67,7.64,7.64,0,0,1,.46,1.76c.05.59,0,.73.08,1.26A4.18,4.18,0,0,0,23,22.9c.44.61.92.67,1.6,1.07,1,.57,1.56,1.42,2.7,3.14,1,1.53.83,1.66,1.47,2.27a8.24,8.24,0,0,0,2.91,1.51,14.45,14.45,0,0,0,3.28,1,3.87,3.87,0,0,0,.56,0c.34,0,.76,0,1.85.06,2.53.07,2.57.18,4.44.19a30.82,30.82,0,0,0,3.42-.1,10.87,10.87,0,0,1,2.27-.3,5.61,5.61,0,0,1,2,.65,46.49,46.49,0,0,0,4.62,1.72c2.31.85,3.47,1.29,4,1.41a17.62,17.62,0,0,0,5.13.25,14.1,14.1,0,0,0,3.23-1C67.87,34.26,69.43,33.6,70.74,33.11Z"/><path class="cls-2" d="M82,38.37a18.32,18.32,0,0,1-3.6.78,21.25,21.25,0,0,1-7.31-.62,28.69,28.69,0,0,1-3.89-1.16l-.18-.06-.1,0s0,.06,0,.1h0c0,.08,0,.16,0,.25-.2.87-.49,2.1-.9,3.57-.6,2.11-.91,2.75-.78,3.75a5.33,5.33,0,0,0,2.41,3.57c0,.86-.07,1.74-.09,2.65q0,2.88.09,5.52l-.54.17c-1.18.33-3.06.88-3.47.28a1.11,1.11,0,0,1-.1-.58,1.28,1.28,0,0,1,.17-.73c.34-.46,1.07,0,1.6-.44a1.67,1.67,0,0,0,.47-1.25c.12-1-.22-1.34-.38-2.62s.16-1.5-.13-2.22-.68-.87-1.51-1.63a19.17,19.17,0,0,1-2.08-2.25,14.31,14.31,0,0,1-2-3.56,18.31,18.31,0,0,0,1.11,4.33A3.37,3.37,0,0,1,61,47.56a2.94,2.94,0,0,1-.28,1.38c-.34.63-.75.66-1.44,1.23s-.5.69-1.44,1.9l-.19.23c-.08.09-.14.18-.21.25A8.48,8.48,0,0,1,56.19,54a1.21,1.21,0,0,0-.14.1,6.45,6.45,0,0,1-2.14,1.16h0a4.82,4.82,0,0,1-2.81.19.34.34,0,0,1-.2-.19c-.17-.32.2-.78.23-.82a.84.84,0,0,1,.28-.23c.53-.37,1.31-.24,2.25-.58A3.88,3.88,0,0,0,55,52.79l.51-.44a.49.49,0,0,0,.13-.12,9.91,9.91,0,0,0,1-.92,6.6,6.6,0,0,0,.56-.7,6.5,6.5,0,0,0,1-1.91,6.22,6.22,0,0,0,.31-1.88,11.25,11.25,0,0,1-1.31-1.66c-1-1.5-.84-2.11-1.63-3a4.06,4.06,0,0,0-.76-.69,5.84,5.84,0,0,0-1-.54,5.29,5.29,0,0,0-1-.31c-1.35-.22-2,.34-3.52.63a9.32,9.32,0,0,1-4.88-.41c-.61.5-1.15,1-1.66,1.43s-1.21,1-1.69,1.48a23.79,23.79,0,0,0-3.62,3.63c-.88,1.22-1.56,2.25-1.56,2.25-.91,1.4-1,1.65-1.45,2a4.89,4.89,0,0,1-2.91.63c-.72,0-1-.09-1.13-.29a.65.65,0,0,1,.13-.75c.35-.34.92.12,1.63,0,.4-.08.82-.34,1.51-1.43a25.15,25.15,0,0,0,1.52-3.17c.83-1.6,1.38-1.65,2.36-3.49l.09-.16A13.59,13.59,0,0,0,38.34,41c-1.6.18-3,.25-4,.31a15.9,15.9,0,0,1-3.78,0,3.72,3.72,0,0,1-.61-.18,4.39,4.39,0,0,0-2-.36h-.1a5.92,5.92,0,0,0-1.88.83c-.65.35-1.25.74-2.9,1.76-.63.38-1,.6-1.46.51a1.27,1.27,0,0,1-1-.76.27.27,0,0,1,0-.12c-.06-.45.35-.81,1-1.37a9.79,9.79,0,0,1,1.88-1.22c1.07-.48,1.14-.26,1.91-.69a.44.44,0,0,0,.16-.1c.82-.5.9-.91,1.56-1s.82.13,1.64.28a7.58,7.58,0,0,0,2.47-.11c1.5-.17,2.84-.36,4-.54,0-.38,0-1,0-1.68a16.67,16.67,0,0,0,.09-1.71c-.09-1.27-.54-1.47-.35-2.17a1.54,1.54,0,0,1,.56-.76,2.45,2.45,0,0,0,.44-.6A3.55,3.55,0,0,0,36.21,29a18.13,18.13,0,0,0-.88-2.34c-.12-.37-.2-.66-.26-.86-.15.1-.49-.09-.75-.11a1.32,1.32,0,0,1-.91-.32C32.85,25,32.32,25.1,31,25a9.34,9.34,0,0,1-2.75-.35c-.78-.31-1.72-1.09-2.41-3.22A7.94,7.94,0,0,1,28,20.76c1.51-.26,2.11.09,3-.47.64-.38.54-.69,1.3-1.1.92-.48,1.49-.31,1.66-.69s-.47-.84-.76-1.87a3.48,3.48,0,0,1-.06-1.74c1.24.1,1.71.47,1.9.83.31.58-.09,1.18.29,1.88a2.08,2.08,0,0,0,.94.83,3.66,3.66,0,0,1-.07-1.75A3.88,3.88,0,0,1,38,14.28a7.34,7.34,0,0,1,.16,1.81,9.69,9.69,0,0,0-.12,1.27A4.18,4.18,0,0,0,38.43,19c.34.67.81.82,1.41,1.32.89.73,1.3,1.66,2.15,3.54.75,1.68.54,1.78,1.06,2.48a8.5,8.5,0,0,0,2.63,2,14.34,14.34,0,0,0,3.07,1.49,20.56,20.56,0,0,0,2.37.5c2.48.5,2.49.6,4.33.94a28.42,28.42,0,0,0,3.4.45,11.68,11.68,0,0,1,2.29.09,4.9,4.9,0,0,1,1.82,1,30.64,30.64,0,0,0,3.51,2c.27.13.52.26.77.41l.18.1c2,1.16,3,1.73,3.57,2a17.79,17.79,0,0,0,5,1.11A27.42,27.42,0,0,0,82,38.37Z"/><path class="cls-2" d="M67.77,37l-.53.41-.35.25A18.64,18.64,0,0,1,64.62,39a21.94,21.94,0,0,1-7.18,2.11,26.65,26.65,0,0,1-2.69.31c-.34,0-.69.05-1.08.06l-.69,0c.15.86.37,2.26.53,4,.09.9.12,1.55.18,2.08-.27-.18-.59-.36-1-.64a21.68,21.68,0,0,1-2.42-1.86,15.7,15.7,0,0,1-2.62-3.18A17.91,17.91,0,0,0,49.46,46,4.32,4.32,0,0,1,50,47.31a2.87,2.87,0,0,1,0,1.39,2.64,2.64,0,0,1-.86,1.11c-.45-.37-.94-.81-1.44-1.31.41.66.77,1.22,1.09,1.67a12.8,12.8,0,0,0,1.57,1.93,3.73,3.73,0,0,1,.83,1.17,3.3,3.3,0,0,1,.23.92,1.84,1.84,0,0,1,0,.47,1.53,1.53,0,0,1-.31.77c-.14.25-.37.5-.6.92-.43.76-.21.82-.76,2.57a10.85,10.85,0,0,1-.9,2.25,7,7,0,0,1-1.66,1.89c-.87.69-2.4,1.55-2.87,1.12-.26-.24-.1-.81-.07-.87.25-.81,1.19-.89,2.11-1.67a5.77,5.77,0,0,0,1.3-1.87,8.17,8.17,0,0,0,1.19-4.36,7,7,0,0,0-.4-1.87,7.59,7.59,0,0,1-1.14-.6c-.22-.14-.46-.28-.71-.46s-.4-.29-.56-.43c-1-.79-1.19-1.3-2.11-1.79a5.28,5.28,0,0,0-3.25-.4c-1.38.3-1.83,1.08-3.13,1.9a9.94,9.94,0,0,1-4.81,1.43c-.87,1.55-1.57,2.89-2.12,3.94a25.89,25.89,0,0,0-2.11,4.71c-.38,1.46-.65,2.66-.65,2.66-.35,1.65-.32,1.9-.65,2.4a5,5,0,0,1-2.55,1.66c-.66.28-1,.31-1.18.15a.66.66,0,0,1-.15-.74c.21-.44.93-.23,1.55-.63.35-.22.64-.63.92-1.9A27.74,27.74,0,0,0,26,62c.2-1.81.7-2.06,1-4.12a13.57,13.57,0,0,0,.1-2.23c-1.45.73-2.72,1.32-3.67,1.75a17.11,17.11,0,0,1-3.6,1.36c-1.25.19-1.84,0-2.75.49a5.58,5.58,0,0,0-1.57,1.51c-.49.56-.93,1.16-2.12,2.71-.46.58-.72.92-1.21,1a1.26,1.26,0,0,1-1.3-.45c-.22-.38,0-.88.44-1.63a8,8,0,0,1,1.35-1.83c.84-.85,1-.67,1.56-1.36.73-.87.6-1.3,1.22-1.69s.83-.19,1.67-.35a8.13,8.13,0,0,0,2.31-1c1.37-.74,2.57-1.4,3.63-2-.13-.36-.35-.9-.59-1.58-.4-1.11-.34-1.17-.56-1.63-.54-1.13-1.05-1.16-1.13-1.88s.35-.75.46-1.63A3.35,3.35,0,0,0,21,45.94a3.75,3.75,0,0,0-.36-.72c-.36-.6-.66-.66-1.52-1.66L19,43.37c-.25-.3-.25-.3-.37-.46-.12.14-.48.08-.75.16-.44.17-.82-.08-1.19-.2-.7-.21-1.16.13-2.47.57a9.28,9.28,0,0,1-2.75.68c-.85,0-2-.37-3.49-2.1a8.67,8.67,0,0,1,1.8-1.46c1.34-.81,2.06-.69,2.72-1.54.47-.6.27-.85.84-1.52s1.31-.83,1.32-1.26-.75-.6-1.41-1.44a3.58,3.58,0,0,1-.7-1.6c1.22-.37,1.8-.21,2.11.06.5.42.36,1.13,1,1.64a2,2,0,0,0,1.19.43,3.37,3.37,0,0,1-.71-1.6A3.82,3.82,0,0,1,17,30.82a6.69,6.69,0,0,1,.81,1.63,11.34,11.34,0,0,0,.37,1.2,3.5,3.5,0,0,0,.94,1.41c.57.52,1.07.48,1.83.73a4,4,0,0,1,1.12.55,17.9,17.9,0,0,1,2.23,1.94,13.48,13.48,0,0,1,1.24,1.34,2.41,2.41,0,0,0,.69.57,4.42,4.42,0,0,0,1.63.59c.44.09,1,.18,1.6.28a5.52,5.52,0,0,0,.55.07,12.46,12.46,0,0,0,2.92.18,19.16,19.16,0,0,0,2.44-.41c2.54-.46,2.6-.37,4.48-.74a32.19,32.19,0,0,0,3.4-.82,11.2,11.2,0,0,1,2.22-.76,5.38,5.38,0,0,1,2.09.22,46.43,46.43,0,0,0,5,.7l1.38.19c1.61.22,2.47.34,2.94.34A17.56,17.56,0,0,0,62,39.19a29.22,29.22,0,0,0,4.91-1.82h0l.12-.06Z"/></g></g></svg>