<svg xmlns="http://www.w3.org/2000/svg" viewBox="0 0 24.13 24.13"><defs><style>.cls-1{fill:#fff;}.cls-2{fill:none;}</style></defs><g id="Layer_2" data-name="Layer 2"><g id="Layer_1-2" data-name="Layer 1"><path class="cls-1" d="M18.4,10.51l-.26,9.82A10.43,10.43,0,0,1,13.61,19L13,18.66l-.82-.45a10.49,10.49,0,0,0-5.45-1l-.28,0c-.34-.89.33-3.13.12-5.36a.25.25,0,0,1,0-.1A.84.84,0,0,1,7.45,11a.76.76,0,0,1,.34.11.83.83,0,0,1,.41.79,1.62,1.62,0,0,1,0,.18c-.25,1.81.14,3,1.18,3.66,2.78,1.76,3.58,1.36,4.89,1.7.53.1.86.24.94.69a.78.78,0,0,1-.07.48.79.79,0,0,0,.19-.68.62.62,0,0,0-.18-.38,1.49,1.49,0,0,0-.75-.31c-1.31-.34-2.11.06-4.9-1.7a2.18,2.18,0,0,1-.34-.26L9,15.17H9l-.1-.11L8.85,15l-.09-.12h0l-.08-.12,0-.08-.08-.15c0-.06-.05-.12-.08-.19h0a4.94,4.94,0,0,1-.05-2.39c0-.08,0-.15,0-.19a1,1,0,0,0-.52-.82l-.08,0a1.25,1.25,0,0,0-.26-.07.7.7,0,0,0-.29,0,8,8,0,0,0,0-.85.14.14,0,0,1,0-.1.83.83,0,0,1,.81-.71h.14a.83.83,0,0,1,.69,1,.82.82,0,0,1,0,.18c-.36,1.78-.23,3.09.77,3.81a9.51,9.51,0,0,0,4.78,2c.65.15.85.3.89.75a.71.71,0,0,1-.05.38.83.83,0,0,0,.16-.58.64.64,0,0,0-.23-.49,1.68,1.68,0,0,0-.66-.25,9.41,9.41,0,0,1-4.78-2c-1-.71-1-2-.66-3.78,0-.08,0-.13,0-.18a.94.94,0,0,0-.81-1h-.2A.79.79,0,0,0,8,9a3.75,3.75,0,0,0,0-.58.56.56,0,0,1,0-.1.83.83,0,0,1,.63-.71,1,1,0,0,1,.3,0,.84.84,0,0,1,.73.93,1.64,1.64,0,0,0,0,.18c-.31,1.8-.54,3.26.48,3.95a9,9,0,0,0,4.83,1.87c.68.12.86.27.91.72a.82.82,0,0,1-.11.54.82.82,0,0,0,.32-.77c-.06-.45-.23-.59-.91-.72a9.11,9.11,0,0,1-4.84-1.86c-1-.7-.78-2.16-.47-4,0-.08,0-.14,0-.18a.83.83,0,0,0-.72-.93,1,1,0,0,0-.3,0l-.11,0C10,5.12,13.05,3.68,14.32,3.87L15.2,4C16.21,4.15,18.48,6.57,18.4,10.51Z"/><path class="cls-1" d="M18.22,22.07h0a11.63,11.63,0,0,1-2-.26,13,13,0,0,1-3.86-1.58c-.28-.16-.53-.3-.77-.42A9.57,9.57,0,0,0,6,19a.74.74,0,0,1-.79-.68.77.77,0,0,1,.63-.85,10.92,10.92,0,0,1,6.31.92l.82.45a11.75,11.75,0,0,0,3.49,1.44,10.82,10.82,0,0,0,1.8.24.77.77,0,0,1,0,1.53Z"/><path class="cls-1" d="M14.56,2.8c0,.43.42.54.45,1s-.39.52-.45,1a1.34,1.34,0,0,0,1.08,1.36c.82.06,1.27-1.14,1.3-1.24a2.17,2.17,0,0,0-.49-2.24c-.3-.29-1-.75-1.47-.49A.85.85,0,0,0,14.56,2.8Z"/><rect class="cls-2" width="24.13" height="24.13"/></g></g></svg>